<?xml version="1.0" encoding="UTF-8"?>
<svg width="60px" height="70px" viewBox="0 0 60 70" version="1.1" xmlns="http://www.w3.org/2000/svg" xmlns:xlink="http://www.w3.org/1999/xlink">
    <!-- Generator: Sketch 41.2 (35397) - http://www.bohemiancoding.com/sketch -->
    <title>illustration</title>
    <desc>Created with Sketch.</desc>
    <defs></defs>
    <g id="V3" stroke="none" stroke-width="1" fill="none" fill-rule="evenodd">
        <g id="Home---Locked" transform="translate(-70.000000, -65.000000)" fill="#292727">
            <g id="illustration" transform="translate(70.000000, 65.000000)">
                <path d="M10.2526316,58.8354782 C10.1894737,59.0249519 10.2526316,59.1512677 10.4421053,59.2144256 L11.0105263,59.4038993 C11.2,59.4670572 11.2631579,59.3407414 11.3263158,59.2144256 L17.0105263,46.0144256 L42.8421053,46.0144256 L48.4631579,59.2144256 C48.5263158,59.3407414 48.5894737,59.4670572 48.7789474,59.4038993 L49.3473684,59.2144256 C49.5368421,59.1512677 49.6,59.0249519 49.5368421,58.8354782 L30.4631579,13.993373 C30.4,13.8670572 30.2736842,13.7407414 30.1473684,13.7407414 L30.0210526,13.7407414 C29.8947368,13.7407414 29.7684211,13.8670572 29.7052632,13.993373 L10.2526316,58.8354782 Z M17.5157895,44.9407414 L30.0842105,16.0144256 L42.3368421,44.9407414 L17.5157895,44.9407414 Z" id="A-Copy-7"></path>
                <path d="M0.252631579,68.4631585 C0.189473684,68.6526322 0.252631579,68.778948 0.442105263,68.8421059 L1.01052632,69.0315796 C1.2,69.0947375 1.26315789,68.9684217 1.32631579,68.8421059 L17.0105263,32.6421059 L42.8421053,32.6421059 L58.4631579,68.8421059 C58.5263158,68.9684217 58.5894737,69.0947375 58.7789474,69.0315796 L59.3473684,68.8421059 C59.5368421,68.778948 59.6,68.6526322 59.5368421,68.4631585 L30.4631579,0.621053274 C30.4,0.494737485 30.2736842,0.368421695 30.1473684,0.368421695 C29.8947368,0.368421695 29.7684211,0.494737485 29.7052632,0.621053274 L0.252631579,68.4631585 Z M17.5157895,31.5684217 L30.0842105,2.64210591 L42.3368421,31.5684217 L17.5157895,31.5684217 Z" id="A-Copy-6"></path>
                <path d="M16.3157895,18.2066277 L43.6842105,18.2066277 C43.6842105,18.2066277 43.9097622,18.2066277 43.8946854,18.7463926 C43.8796087,19.2861576 43.6842105,19.2592593 43.6842105,19.2592593 L16.3157895,19.2592593 C16.3157895,19.2592593 16.1175644,19.2592593 16.1053146,18.7329435 C16.0930647,18.2066277 16.3157895,18.2066277 16.3157895,18.2066277 Z" id="Rectangle-Copy-3"></path>
                <path d="M30,56.9400024 C33.3137085,56.9400024 36,54.2537109 36,50.9400024 C36,47.6262939 33.3137085,44.9400024 30,44.9400024 C26.6862915,44.9400024 24,47.6262939 24,50.9400024 C24,54.2537109 26.6862915,56.9400024 30,56.9400024 Z M29.9999986,55.8400011 C32.7061939,55.8400011 34.8999987,53.6461963 34.8999987,50.940001 C34.8999987,48.2338057 32.7061939,46.0400009 29.9999986,46.0400009 C27.2938032,46.0400009 25.0999985,48.2338057 25.0999985,50.940001 C25.0999985,53.6461963 27.2938032,55.8400011 29.9999986,55.8400011 Z" id="Combined-Shape"></path>
            </g>
        </g>
    </g>
</svg>