<?xml version="1.0" encoding="UTF-8"?>
<svg width="34px" height="34px" viewBox="0 0 34 34" version="1.1" xmlns="http://www.w3.org/2000/svg" xmlns:xlink="http://www.w3.org/1999/xlink">
    <!-- Generator: Sketch 41.1 (35376) - http://www.bohemiancoding.com/sketch -->
    <title>Social</title>
    <desc>Created with Sketch.</desc>
    <defs>
        <circle id="path-1" cx="16" cy="16" r="16"></circle>
        <mask id="mask-2" maskContentUnits="userSpaceOnUse" maskUnits="objectBoundingBox" x="-1" y="-1" width="34" height="34">
            <rect x="-1" y="-1" width="34" height="34" fill="white"></rect>
            <use xlink:href="#path-1" fill="black"></use>
        </mask>
        <path d="M11.182,7.17266667 L8.32533333,5.17933333 L8.32533333,1.97233333 L13.488,5.56333333 L11.182,7.17266667 L11.182,7.17266667 Z M12.367,8 L14.0156667,6.84933333 L14.0156667,9.15033333 L12.367,8 L12.367,8 Z M8.32533333,10.8206667 L11.182,8.82733333 L13.488,10.4366667 L8.32533333,14.0276667 L8.32533333,10.8206667 L8.32533333,10.8206667 Z M4.151,8.82733333 L7.00766667,10.8206667 L7.00766667,14.0276667 L1.84533333,10.4366667 L4.151,8.82733333 L4.151,8.82733333 Z M2.966,8 L1.31766667,9.15033333 L1.31766667,6.84933333 L2.966,8 L2.966,8 Z M7.00766667,5.17933333 L4.151,7.17266667 L1.84533333,5.56333333 L7.00766667,1.97233333 L7.00766667,5.17933333 L7.00766667,5.17933333 Z M7.66666667,9.62633333 L5.33633333,8 L7.66666667,6.37333333 L9.997,8 L7.66666667,9.62633333 L7.66666667,9.62633333 Z M15.3223333,5.443 C15.3186667,5.42333333 15.3156667,5.40433333 15.3106667,5.38533333 C15.3076667,5.374 15.3036667,5.363 15.3003333,5.352 C15.295,5.335 15.29,5.31833333 15.2833333,5.30166667 C15.2786667,5.29033333 15.2736667,5.27933333 15.2686667,5.26833333 C15.2616667,5.25266667 15.2543333,5.23733333 15.2463333,5.22266667 C15.2403333,5.21166667 15.2336667,5.20133333 15.2273333,5.19066667 C15.2186667,5.17666667 15.2093333,5.16233333 15.1996667,5.149 C15.1923333,5.139 15.185,5.129 15.177,5.11933333 C15.1666667,5.10633333 15.1556667,5.09433333 15.1443333,5.082 C15.1356667,5.073 15.1266667,5.06366667 15.118,5.05533333 C15.106,5.044 15.0933333,5.03333333 15.0806667,5.02266667 C15.0706667,5.01466667 15.061,5.00666667 15.0506667,4.999 C15.047,4.99633333 15.0436667,4.993 15.04,4.99066667 L8.032,0.115666667 C7.81066667,-0.0386666667 7.52233333,-0.0386666667 7.30133333,0.115666667 L0.293333333,4.99066667 C0.289333333,4.993 0.286333333,4.99633333 0.282333333,4.999 C0.272,5.00666667 0.262333333,5.01466667 0.252666667,5.02266667 C0.24,5.03333333 0.227,5.044 0.215333333,5.05533333 C0.206333333,5.06366667 0.197666667,5.073 0.189,5.082 C0.177666667,5.09433333 0.166666667,5.10633333 0.156,5.11933333 C0.148333333,5.129 0.140666667,5.139 0.133666667,5.149 C0.123666667,5.16233333 0.114666667,5.17666667 0.105666667,5.19066667 C0.0993333333,5.20133333 0.093,5.21166667 0.087,5.22266667 C0.0786666667,5.23733333 0.0713333333,5.25266667 0.0646666667,5.26833333 C0.0596666667,5.27933333 0.0543333333,5.29033333 0.05,5.30166667 C0.0436666667,5.31833333 0.038,5.335 0.033,5.352 C0.0293333333,5.363 0.0256666667,5.374 0.0226666667,5.38533333 C0.018,5.40433333 0.0143333333,5.42333333 0.011,5.443 C0.00966666667,5.453 0.00733333333,5.46266667 0.00566666667,5.47266667 C0.002,5.50233333 0,5.53233333 0,5.56233333 L0,10.4373333 C0,10.4676667 0.002,10.4976667 0.00566666667,10.5273333 C0.00733333333,10.5373333 0.00966666667,10.547 0.011,10.557 C0.0143333333,10.5763333 0.018,10.5956667 0.0226666667,10.6146667 C0.0256666667,10.626 0.0293333333,10.637 0.033,10.648 C0.038,10.665 0.0436666667,10.6816667 0.05,10.6983333 C0.0543333333,10.7096667 0.0596666667,10.7206667 0.0646666667,10.7316667 C0.0713333333,10.747 0.0786666667,10.7623333 0.087,10.7773333 C0.093,10.7883333 0.0993333333,10.7986667 0.105666667,10.809 C0.114666667,10.8233333 0.123666667,10.837 0.133666667,10.851 C0.140666667,10.8613333 0.148333333,10.871 0.156,10.8806667 C0.166666667,10.8933333 0.177666667,10.906 0.189,10.9176667 C0.197666667,10.9266667 0.206333333,10.936 0.215333333,10.9443333 C0.227,10.956 0.24,10.9666667 0.252666667,10.9773333 C0.262333333,10.9853333 0.272,10.9933333 0.282333333,11.001 C0.286333333,11.0036667 0.289333333,11.0066667 0.293333333,11.0093333 L7.30133333,15.8843333 C7.412,15.9613333 7.539,16 7.66666667,16 C7.794,16 7.92133333,15.9613333 8.032,15.8843333 L15.04,11.0093333 C15.0436667,11.0066667 15.047,11.0036667 15.0506667,11.001 C15.061,10.9933333 15.0706667,10.9853333 15.0806667,10.9773333 C15.0933333,10.9666667 15.106,10.956 15.118,10.9443333 C15.1266667,10.936 15.1356667,10.9266667 15.1443333,10.9176667 C15.1556667,10.906 15.1666667,10.8933333 15.177,10.8806667 C15.185,10.871 15.1923333,10.8613333 15.1996667,10.851 C15.2093333,10.837 15.2186667,10.8233333 15.2273333,10.809 C15.2336667,10.7986667 15.2403333,10.7883333 15.2463333,10.7773333 C15.2543333,10.7623333 15.2616667,10.747 15.2686667,10.7316667 C15.2736667,10.7206667 15.2786667,10.7096667 15.2833333,10.6983333 C15.29,10.6816667 15.295,10.665 15.3003333,10.648 C15.3036667,10.637 15.3076667,10.626 15.3106667,10.6146667 C15.3156667,10.5956667 15.3186667,10.5763333 15.3223333,10.557 C15.3236667,10.547 15.326,10.5373333 15.3273333,10.5273333 C15.331,10.4976667 15.3333333,10.4676667 15.3333333,10.4373333 L15.3333333,5.56233333 C15.3333333,5.53233333 15.331,5.50233333 15.3273333,5.47266667 C15.326,5.46266667 15.3236667,5.453 15.3223333,5.443 L15.3223333,5.443 Z" id="path-3"></path>
    </defs>
    <g id="V3" stroke="none" stroke-width="1" fill="none" fill-rule="evenodd">
        <g id="Home" transform="translate(-811.000000, -387.000000)">
            <g id="Social" transform="translate(812.000000, 388.000000)">
                <use id="Oval-2-Copy-2" stroke="#292727" mask="url(#mask-2)" stroke-width="2" xlink:href="#path-1"></use>
                <g id="Codepen" transform="translate(8.000000, 8.000000)">
                    <mask id="mask-4" fill="white">
                        <use xlink:href="#path-3"></use>
                    </mask>
                    <g id="Clip-219"></g>
                    <polygon id="Fill-218" fill="#000000" mask="url(#mask-4)" points="-0.00666666667 16 15.3533333 16 15.3533333 -0.04 -0.00666666667 -0.04"></polygon>
                </g>
            </g>
        </g>
    </g>
</svg>