<?xml version="1.0" encoding="UTF-8"?>
<svg width="16px" height="16px" viewBox="0 0 16 16" version="1.1" xmlns="http://www.w3.org/2000/svg" xmlns:xlink="http://www.w3.org/1999/xlink">
    <!-- Generator: Sketch 41.2 (35397) - http://www.bohemiancoding.com/sketch -->
    <title>Dribbble</title>
    <desc>Created with Sketch.</desc>
    <defs>
        <path d="M15.8370909,6.39018182 C15.7327273,5.87563636 15.5749091,5.36945455 15.3705455,4.88581818 C15.1712727,4.41163636 14.9218182,3.95454545 14.6330909,3.52763636 C14.3469091,3.10436364 14.0185455,2.70545455 13.6574545,2.344 C13.2952727,1.98218182 12.8974545,1.65381818 12.4730909,1.36763636 C12.0458182,1.07818182 11.5887273,0.830545455 11.1145455,0.629454545 C10.6309091,0.426181818 10.1247273,0.267272727 9.61127273,0.163636364 C9.08436364,0.0556363636 8.54254545,0 8.00036364,0 C7.45745455,0 6.91563636,0.0556363636 6.38872727,0.163636364 C5.87527273,0.267272727 5.36909091,0.426181818 4.88545455,0.629454545 C4.41127273,0.830545455 3.95418182,1.07818182 3.52618182,1.36763636 C3.10254545,1.65381818 2.70472727,1.98218182 2.34254545,2.344 C1.98036364,2.70545455 1.65309091,3.10436364 1.36690909,3.52763636 C1.07709091,3.95454545 0.828727273,4.41163636 0.628363636,4.88581818 C0.424363636,5.36945455 0.267272727,5.87563636 0.161818182,6.39018182 C0.0545454545,6.91490909 0,7.45781818 0,7.99963636 C0,8.54218182 0.0545454545,9.08509091 0.161818182,9.612 C0.267272727,10.1243636 0.424363636,10.6316364 0.628363636,11.1141818 C0.828727273,11.5883636 1.07709091,12.0461818 1.36690909,12.4741818 C1.65309091,12.8978182 1.98036364,13.2945455 2.34254545,13.6567273 C2.70472727,14.0189091 3.10254545,14.3461818 3.52618182,14.6323636 C3.95418182,14.9218182 4.41127273,15.1701818 4.88545455,15.3705455 C5.36909091,15.5749091 5.87527273,15.7309091 6.38872727,15.8363636 C6.91563636,15.9454545 7.45745455,16 8.00036364,16 C8.54254545,16 9.08436364,15.9454545 9.61127273,15.8363636 C10.1247273,15.7309091 10.6309091,15.5749091 11.1145455,15.3705455 C11.5887273,15.1701818 12.0458182,14.9218182 12.4730909,14.6323636 C12.8974545,14.3461818 13.2952727,14.0189091 13.6574545,13.6567273 C14.0185455,13.2945455 14.3469091,12.8978182 14.6330909,12.4741818 C14.9218182,12.0461818 15.1712727,11.5883636 15.3705455,11.1141818 C15.5749091,10.6316364 15.7327273,10.1243636 15.8370909,9.612 C15.9454545,9.08509091 16,8.54218182 16,7.99963636 C16,7.45781818 15.9454545,6.91490909 15.8370909,6.39018182 L15.8370909,6.39018182 Z M14.8305455,7.93163636 C14.732,7.91018182 12.4192727,7.41272727 10.072,7.708 C10.0232727,7.59127273 9.97418182,7.47381818 9.92436364,7.356 C9.78145455,7.02109091 9.62909091,6.69018182 9.46981818,6.36472727 C12.168,5.26290909 13.2632727,3.67890909 13.2763636,3.66 C14.2341818,4.82472727 14.8145455,6.31090909 14.8305455,7.93163636 L14.8305455,7.93163636 Z M12.5123636,2.87272727 C12.4956364,2.89927273 11.5229091,4.38072727 8.94327273,5.34690909 C7.77563636,3.20109091 6.49236364,1.49672727 6.38981818,1.36109091 C6.90618182,1.236 7.44545455,1.16836364 8.00036364,1.16836364 C9.72981818,1.16836364 11.3083636,1.81345455 12.5123636,2.87272727 L12.5123636,2.87272727 Z M6.36363636,1.36690909 C6.36363636,1.36763636 6.36254545,1.36763636 6.36254545,1.36763636 C6.36254545,1.36763636 6.35418182,1.36945455 6.34181818,1.37236364 C6.34836364,1.37054545 6.356,1.36945455 6.36363636,1.36690909 L6.36363636,1.36690909 Z M5.08509091,1.82109091 C5.17527273,1.94327273 6.43963636,3.65527273 7.62218182,5.75781818 C4.34181818,6.62981818 1.49381818,6.59527273 1.31345455,6.59236364 C1.75745455,4.47563636 3.17890909,2.72145455 5.08509091,1.82109091 L5.08509091,1.82109091 Z M1.16763636,7.99963636 C1.16763636,7.92690909 1.17127273,7.85563636 1.17309091,7.784 C1.29345455,7.78690909 4.67018182,7.86327273 8.18763636,6.81054545 C8.38327273,7.19345455 8.57054545,7.58290909 8.74181818,7.97127273 C8.65163636,7.99672727 8.56218182,8.024 8.47272727,8.05309091 C4.78581818,9.24509091 2.91563636,12.5618182 2.91563636,12.5618182 C2.91563636,12.5618182 2.91818182,12.5647273 2.91818182,12.5654545 C1.82981818,11.3549091 1.16763636,9.75490909 1.16763636,7.99963636 L1.16763636,7.99963636 Z M8.00036364,14.8316364 C6.34654545,14.8316364 4.83018182,14.2436364 3.64727273,13.2665455 C3.73781818,13.3389091 3.80072727,13.3858182 3.80072727,13.3858182 C3.80072727,13.3858182 5.11018182,10.5298182 9.16218182,9.11781818 C9.17745455,9.11236364 9.19236364,9.10763636 9.20836364,9.10290909 C10.1698182,11.6014545 10.5661818,13.6934545 10.6676364,14.2909091 C9.848,14.6389091 8.94581818,14.8316364 8.00036364,14.8316364 L8.00036364,14.8316364 Z M11.8181818,13.6661818 C11.7487273,13.2541818 11.3843636,11.2487273 10.488,8.78690909 C12.6941818,8.43418182 14.6047273,9.03890909 14.7458182,9.08509091 C14.4421818,10.988 13.3516364,12.6305455 11.8181818,13.6661818 L11.8181818,13.6661818 Z" id="path-1"></path>
    </defs>
    <g id="V3" stroke="none" stroke-width="1" fill="none" fill-rule="evenodd">
        <g id="Home---Locked-Copy-2" transform="translate(-540.000000, -736.000000)">
            <g id="Social" transform="translate(540.000000, 736.000000)">
                <g id="Dribbble">
                    <mask id="mask-2" fill="white">
                        <use xlink:href="#path-1"></use>
                    </mask>
                    <g id="Clip-169"></g>
                    <polygon id="Fill-168" fill="#292727" mask="url(#mask-2)" points="-0.0218181818 16.0290909 16.0363636 16.0290909 16.0363636 -0.0290909091 -0.0218181818 -0.0290909091"></polygon>
                </g>
            </g>
        </g>
    </g>
</svg>