<?xml version="1.0" encoding="UTF-8"?>
<svg width="16px" height="16px" viewBox="0 0 16 16" version="1.1" xmlns="http://www.w3.org/2000/svg" xmlns:xlink="http://www.w3.org/1999/xlink">
    <!-- Generator: Sketch 41.2 (35397) - http://www.bohemiancoding.com/sketch -->
    <title>instagram</title>
    <desc>Created with Sketch.</desc>
    <defs></defs>
    <g id="V3" stroke="none" stroke-width="1" fill="none" fill-rule="evenodd">
        <g id="Home---Locked-Copy-2" transform="translate(-716.000000, -736.000000)" fill="#292727">
            <g id="instagram" transform="translate(716.000000, 736.000000)">
                <path d="M7.99998412,1.44147062 C10.1360866,1.44147062 10.389087,1.44960017 11.2326547,1.4880885 C12.0126468,1.52368704 12.4362408,1.65401387 12.718171,1.76354048 C13.0915586,1.90866563 13.3580872,2.08205366 13.6380168,2.36198324 C13.9179463,2.64191283 14.0913344,2.90844135 14.2364278,3.28182899 C14.3459861,3.5637592 14.476313,3.98735315 14.5119115,4.7673135 C14.5503998,5.61091297 14.5585294,5.86391342 14.5585294,8.00001588 C14.5585294,10.1361183 14.5503998,10.3891188 14.5119115,11.2326865 C14.476313,12.0126786 14.3459861,12.4362726 14.2364278,12.7182028 C14.0913344,13.0915904 13.9179463,13.3581189 13.6380168,13.6380485 C13.3580872,13.9179781 13.0915586,14.0913661 12.718171,14.2364595 C12.4362408,14.3460179 12.0126468,14.4763447 11.2326547,14.5119433 C10.3892141,14.5504316 10.1362136,14.5585611 7.99998412,14.5585611 C5.86375464,14.5585611 5.61075419,14.5504316 4.7673135,14.5119433 C3.9873214,14.4763447 3.56372745,14.3460179 3.28182899,14.2364595 C2.9084096,14.0913661 2.64188107,13.9179781 2.36195149,13.6380485 C2.08202191,13.3581189 1.90863387,13.0915904 1.76354048,12.7182028 C1.65398211,12.4362726 1.52365528,12.0126786 1.48805675,11.2327183 C1.44956842,10.3891188 1.44143887,10.1361183 1.44143887,8.00001588 C1.44143887,5.86391342 1.44956842,5.61091297 1.48805675,4.76734525 C1.52365528,3.98735315 1.65398211,3.5637592 1.76354048,3.28182899 C1.90863387,2.90844135 2.08202191,2.64191283 2.36195149,2.36198324 C2.64188107,2.08205366 2.9084096,1.90866563 3.28182899,1.76354048 C3.56372745,1.65401387 3.9873214,1.52368704 4.76728174,1.4880885 C5.61088121,1.44960017 5.86388166,1.44147062 7.99998412,1.44147062 M7.99998412,0 C5.82729869,0 5.55489529,0.00920925451 4.70161023,0.0481421718 C3.85007175,0.0870115771 3.26855496,0.222228838 2.75966426,0.420005518 C2.23359353,0.624450968 1.78745279,0.897997583 1.34270931,1.34274106 C0.897965827,1.78748454 0.624419212,2.23362529 0.419973762,2.75969602 C0.222197082,3.26858672 0.086979821,3.8501035 0.0481104158,4.70164199 C0.00917749846,5.55489529 0,5.82733045 0,8.00001588 C0,10.1727013 0.00917749846,10.4451365 0.0481104158,11.2983898 C0.086979821,12.1499283 0.222197082,12.731445 0.419973762,13.2403357 C0.624419212,13.7663747 0.897965827,14.2125472 1.34270931,14.6572907 C1.78745279,15.1020342 2.23359353,15.3755808 2.75966426,15.5800262 C3.26855496,15.7778029 3.85007175,15.9130202 4.70161023,15.9518896 C5.55489529,15.9908225 5.82729869,16 7.99998412,16 C10.1726696,16 10.4451047,15.9908225 11.298358,15.9518896 C12.1498965,15.9130202 12.7314133,15.7778029 13.240304,15.5800262 C13.7663747,15.3755808 14.2125155,15.1020342 14.6572589,14.6572907 C15.1020024,14.2125472 15.375549,13.7664065 15.5799945,13.2403357 C15.7777712,12.731445 15.9129884,12.1499283 15.9518578,11.2983898 C15.9907907,10.4451365 16,10.1727013 16,8.00001588 C16,5.82733045 15.9907907,5.55489529 15.9518578,4.70164199 C15.9129884,3.8501035 15.7777712,3.26858672 15.5799945,2.75969602 C15.375549,2.23362529 15.1020024,1.78748454 14.6572589,1.34274106 C14.2125155,0.897997583 13.7663747,0.624450968 13.240304,0.420005518 C12.7314133,0.222228838 12.1498965,0.0870115771 11.298358,0.0481421718 C10.4451047,0.00920925451 10.1726696,0 7.99998412,0 Z M8.01587302,3.9047619 C5.74537911,3.9047619 3.9047619,5.74537911 3.9047619,8.01587302 C3.9047619,10.2863669 5.74537911,12.1269841 8.01587302,12.1269841 C10.2863669,12.1269841 12.1269841,10.2863669 12.1269841,8.01587302 C12.1269841,5.74537911 10.2863669,3.9047619 8.01587302,3.9047619 Z M8.01587302,10.6844962 C6.54205088,10.6844962 5.34724978,9.48969515 5.34724978,8.01587302 C5.34724978,6.54205088 6.54205088,5.34724978 8.01587302,5.34724978 C9.48969515,5.34724978 10.6844962,6.54205088 10.6844962,8.01587302 C10.6844962,9.48969515 9.48969515,10.6844962 8.01587302,10.6844962 Z M13.2063492,3.71426996 C13.2063492,4.24026035 12.7799744,4.66666667 12.253984,4.66666667 C11.7279936,4.66666667 11.3015873,4.24026035 11.3015873,3.71426996 C11.3015873,3.18827958 11.7279936,2.76190476 12.253984,2.76190476 C12.7799744,2.76190476 13.2063492,3.18827958 13.2063492,3.71426996 Z" id="Shape"></path>
            </g>
        </g>
    </g>
</svg>