<?xml version="1.0" encoding="UTF-8"?>
<svg width="60px" height="16px" viewBox="0 0 60 16" version="1.1" xmlns="http://www.w3.org/2000/svg" xmlns:xlink="http://www.w3.org/1999/xlink">
    <!-- Generator: Sketch 41.1 (35376) - http://www.bohemiancoding.com/sketch -->
    <title>Shape</title>
    <desc>Created with Sketch.</desc>
    <defs></defs>
    <g id="V3" stroke="none" stroke-width="1" fill="none" fill-rule="evenodd">
        <g id="Home---Locked" transform="translate(-70.000000, -92.000000)" fill="#292727">
            <path d="M129.240506,108 C125.822785,108 124.227848,104.055814 122.708861,100.260465 C121.341772,96.9116279 119.974684,93.4883721 117.544304,93.4883721 C115.113924,93.4883721 113.746835,96.9116279 112.379747,100.260465 C110.860759,104.055814 109.265823,108 105.848101,108 C102.43038,108 100.835443,104.055814 99.3164557,100.260465 C97.9493671,96.9116279 96.5822785,93.4883721 94.1518987,93.4883721 C91.721519,93.4883721 90.3544304,96.9116279 88.9873418,100.260465 C87.4683544,104.055814 85.8734177,108 82.4556962,108 C79.0379747,108 77.443038,104.055814 75.9240506,100.260465 C74.556962,96.9116279 73.1898734,93.4883721 70.7594937,93.4883721 C70.3037975,93.4883721 70,93.1906977 70,92.744186 C70,92.2976744 70.3037975,92 70.7594937,92 C74.1772152,92 75.7721519,95.944186 77.2911392,99.7395349 C78.6582278,103.088372 80.0253165,106.511628 82.4556962,106.511628 C84.8860759,106.511628 86.2531646,103.088372 87.6202532,99.7395349 C89.1392405,95.944186 90.7341772,92 94.1518987,92 C97.5696203,92 99.164557,95.944186 100.683544,99.7395349 C102.050633,103.088372 103.417722,106.511628 105.848101,106.511628 C108.278481,106.511628 109.64557,103.088372 111.012658,99.7395349 C112.531646,95.944186 114.126582,92 117.544304,92 C120.962025,92 122.556962,95.944186 124.075949,99.7395349 C125.443038,103.088372 126.810127,106.511628 129.240506,106.511628 C129.696203,106.511628 130,106.809302 130,107.255814 C130,107.702326 129.696203,108 129.240506,108 L129.240506,108 Z" id="Shape"></path>
        </g>
    </g>
</svg>