<?xml version="1.0" encoding="UTF-8"?>
<svg width="16px" height="14px" viewBox="0 0 16 14" version="1.1" xmlns="http://www.w3.org/2000/svg" xmlns:xlink="http://www.w3.org/1999/xlink">
    <!-- Generator: Sketch 41.2 (35397) - http://www.bohemiancoding.com/sketch -->
    <title>Social</title>
    <desc>Created with Sketch.</desc>
    <defs>
        <path d="M14.1150476,2.168 C14.7931429,1.74019048 15.3135238,1.06171429 15.5577143,0.253714286 C14.9226667,0.650666667 14.2213333,0.937904762 13.4727619,1.09333333 C12.8754286,0.419809524 12.0217143,0 11.0769524,0 C9.26438095,0 7.79580952,1.55009524 7.79580952,3.46171429 C7.79580952,3.73333333 7.82285714,3.99771429 7.8792381,4.25028571 C5.152,4.10552381 2.73371429,2.7287619 1.11390476,0.632761905 C0.831238095,1.14590476 0.669714286,1.74019048 0.669714286,2.37409524 C0.669714286,3.57485714 1.24914286,4.63466667 2.12990476,5.25638095 C1.592,5.23885714 1.08571429,5.08114286 0.642285714,4.82361905 L0.642285714,4.86628571 C0.642285714,6.544 1.77295238,7.94361905 3.27657143,8.26057143 C3.00038095,8.34171429 2.7112381,8.38247619 2.41066667,8.38247619 C2.19961905,8.38247619 1.9927619,8.36152381 1.79390476,8.32114286 C2.21066667,9.696 3.4232381,10.6982857 4.86019048,10.7249524 C3.736,11.6540952 2.3207619,12.2068571 0.783238095,12.2068571 C0.51847619,12.2068571 0.256380952,12.192 0,12.1592381 C1.45295238,13.1409524 3.17790476,13.7142857 5.032,13.7142857 C11.0704762,13.7142857 14.3706667,8.43885714 14.3706667,3.864 C14.3706667,3.71352381 14.3687619,3.56380952 14.3622857,3.41638095 C15.0034286,2.928 15.5615238,2.31771429 16,1.6232381 C15.4110476,1.89866667 14.7782857,2.08495238 14.1150476,2.168 L14.1150476,2.168 Z" id="path-1"></path>
    </defs>
    <g id="V3" stroke="none" stroke-width="1" fill="none" fill-rule="evenodd">
        <g id="Home---Locked-Copy-2" transform="translate(-628.000000, -737.000000)">
            <g id="Social" transform="translate(628.000000, 737.000000)">
                <g id="Twitter">
                    <mask id="mask-2" fill="white">
                        <use xlink:href="#path-1"></use>
                    </mask>
                    <use id="Clip-9" fill="#292727" xlink:href="#path-1"></use>
                </g>
            </g>
        </g>
    </g>
</svg>