<?xml version="1.0" encoding="UTF-8"?>
<svg width="16px" height="14px" viewBox="0 0 16 14" version="1.1" xmlns="http://www.w3.org/2000/svg" xmlns:xlink="http://www.w3.org/1999/xlink">
    <!-- Generator: Sketch 41.2 (35397) - http://www.bohemiancoding.com/sketch -->
    <title>Social</title>
    <desc>Created with Sketch.</desc>
    <defs>
        <path d="M14.1150476,3.168 C14.7931429,2.74019048 15.3135238,2.06171429 15.5577143,1.25371429 C14.9226667,1.65066667 14.2213333,1.93790476 13.4727619,2.09333333 C12.8754286,1.41980952 12.0217143,1 11.0769524,1 C9.26438095,1 7.79580952,2.55009524 7.79580952,4.46171429 C7.79580952,4.73333333 7.82285714,4.99771429 7.8792381,5.25028571 C5.152,5.10552381 2.73371429,3.7287619 1.11390476,1.6327619 C0.831238095,2.14590476 0.669714286,2.74019048 0.669714286,3.37409524 C0.669714286,4.57485714 1.24914286,5.63466667 2.12990476,6.25638095 C1.592,6.23885714 1.08571429,6.08114286 0.642285714,5.82361905 L0.642285714,5.86628571 C0.642285714,7.544 1.77295238,8.94361905 3.27657143,9.26057143 C3.00038095,9.34171429 2.7112381,9.38247619 2.41066667,9.38247619 C2.19961905,9.38247619 1.9927619,9.36152381 1.79390476,9.32114286 C2.21066667,10.696 3.4232381,11.6982857 4.86019048,11.7249524 C3.736,12.6540952 2.3207619,13.2068571 0.783238095,13.2068571 C0.51847619,13.2068571 0.256380952,13.192 0,13.1592381 C1.45295238,14.1409524 3.17790476,14.7142857 5.032,14.7142857 C11.0704762,14.7142857 14.3706667,9.43885714 14.3706667,4.864 C14.3706667,4.71352381 14.3687619,4.56380952 14.3622857,4.41638095 C15.0034286,3.928 15.5615238,3.31771429 16,2.6232381 C15.4110476,2.89866667 14.7782857,3.08495238 14.1150476,3.168 L14.1150476,3.168 Z" id="path-1"></path>
    </defs>
    <g id="V3" stroke="none" stroke-width="1" fill="none" fill-rule="evenodd">
        <g id="Home---Locked-Copy-2" transform="translate(-628.000000, -737.000000)">
            <g id="Social" transform="translate(628.000000, 736.000000)">
                <g id="Twitter">
                    <rect id="Rectangle" x="0" y="0" width="16" height="16"></rect>
                    <mask id="mask-2" fill="white">
                        <use xlink:href="#path-1"></use>
                    </mask>
                    <g id="Clip-9"></g>
                    <polygon id="Fill-8" fill="#292727" mask="url(#mask-2)" points="-0.00761904762 14.7295238 16.0380952 14.7295238 16.0380952 0.96952381 -0.00761904762 0.96952381"></polygon>
                </g>
            </g>
        </g>
    </g>
</svg>